<svg width="49" height="48" viewBox="0 0 49 48" fill="none" xmlns="http://www.w3.org/2000/svg">
<path d="M0.164124 8C0.164124 3.58172 3.74585 0 8.16412 0H40.1641C44.5824 0 48.1641 3.58172 48.1641 8V40C48.1641 44.4183 44.5824 48 40.1641 48H8.16412C3.74585 48 0.164124 44.4183 0.164124 40V8Z" fill="#1E1C69"/>
<path d="M24.1641 12C17.5473 12 12.1641 17.3832 12.1641 24C12.1641 30.6168 17.5473 36 24.1641 36C30.7809 36 36.1641 30.6168 36.1641 24C36.1641 17.3832 30.7809 12 24.1641 12ZM33.6813 22.8H25.3641V14.4828C27.4758 14.7524 29.4382 15.7154 30.9434 17.2207C32.4487 18.726 33.4117 20.6884 33.6813 22.8ZM14.5641 24C14.5641 19.1136 18.2373 15.0768 22.9641 14.4828V24C22.9678 24.1831 23.0134 24.3629 23.0973 24.5256C23.1153 24.5616 23.1237 24.6012 23.1465 24.6372L28.1889 32.7048C26.9286 33.293 25.5549 33.5986 24.1641 33.6C18.8709 33.6 14.5641 29.2932 14.5641 24ZM30.2265 31.4352L26.3301 25.2H33.6813C33.3726 27.6448 32.1357 29.8772 30.2265 31.4352Z" fill="#F4F8F9"/>
</svg>
