<svg width="49" height="48" viewBox="0 0 49 48" fill="none" xmlns="http://www.w3.org/2000/svg">
<path d="M0.164124 8C0.164124 3.58172 3.74585 0 8.16412 0H40.1641C44.5824 0 48.1641 3.58172 48.1641 8V40C48.1641 44.4183 44.5824 48 40.1641 48H8.16412C3.74585 48 0.164124 44.4183 0.164124 40V8Z" fill="#1E1C69"/>
<path fill-rule="evenodd" clip-rule="evenodd" d="M20.1641 10.6666H33.4975C34.9681 10.6666 36.1641 11.8626 36.1641 13.3333V36C36.1641 36.3536 36.0236 36.6927 35.7736 36.9428C35.5236 37.1928 35.1844 37.3333 34.8308 37.3333H13.4975C13.1438 37.3333 12.8047 37.1928 12.5546 36.9428C12.3046 36.6927 12.1641 36.3536 12.1641 36V24C12.1641 22.5293 13.3601 21.3333 14.8308 21.3333H17.4975V13.3333C17.4975 11.8626 18.6935 10.6666 20.1641 10.6666ZM22.8308 24H14.8308V34.6666H22.8308V24ZM25.4975 34.6666H33.4975V13.3333H20.1641V21.3333H22.8308C24.3015 21.3333 25.4975 22.5293 25.4975 24V34.6666ZM25.4975 16H22.8308V18.6667H25.4975V16ZM30.8308 16H28.1641V18.6667H30.8308V16ZM30.8308 21.3747H28.1641V24H30.8308V21.3747ZM30.8308 26.6667H28.1641V29.3333H30.8308V26.6667ZM20.1641 26.668H17.4975V29.3347H20.1641V26.668Z" fill="#F4F8F9"/>
</svg>
