<svg width="48" height="48" viewBox="0 0 48 48" fill="none" xmlns="http://www.w3.org/2000/svg">
<path d="M0 8C0 3.58172 3.58172 0 8 0H40C44.4183 0 48 3.58172 48 8V40C48 44.4183 44.4183 48 40 48H8C3.58172 48 0 44.4183 0 40V8Z" fill="#1E1C69"/>
<path d="M10.5026 24H13.1693C13.1671 22.5984 13.4412 21.2101 13.9759 19.9145C14.5105 18.6189 15.2953 17.4414 16.2853 16.4493C17.2554 15.4754 18.4069 14.7008 19.6746 14.1693C22.2872 13.0839 25.221 13.0642 27.8479 14.1146C27.8743 14.9777 28.2358 15.7965 28.8559 16.3974C29.476 16.9984 30.3058 17.334 31.1693 17.3333C33.0173 17.3333 34.5026 15.848 34.5026 14C34.5026 12.152 33.0173 10.6666 31.1693 10.6666C30.2506 10.6666 29.4199 11.0346 28.8186 11.6333C25.5773 10.336 21.8546 10.356 18.6386 11.712C17.053 12.3774 15.6127 13.3462 14.3986 14.564C13.1805 15.7775 12.2112 17.2174 11.5453 18.8026C10.8534 20.4478 10.4988 22.2152 10.5026 24ZM33.6666 28.1626C33.1319 29.432 32.3639 30.5733 31.3866 31.5506C30.4093 32.528 29.2679 33.296 27.9973 33.8306C25.3846 34.916 22.4509 34.9357 19.8239 33.8853C19.7976 33.0222 19.436 32.2034 18.8159 31.6025C18.1959 31.0016 17.3661 30.6659 16.5026 30.6666C14.6546 30.6666 13.1693 32.152 13.1693 34C13.1693 35.848 14.6546 37.3333 16.5026 37.3333C17.4213 37.3333 18.2519 36.9653 18.8533 36.3666C20.4369 37.0049 22.1285 37.3331 23.8359 37.3333C26.4581 37.3389 29.0234 36.5696 31.2099 35.1221C33.3963 33.6746 35.1063 31.6134 36.1253 29.1973C36.8176 27.5522 37.1726 25.7848 37.1693 24H34.5026C34.5057 25.4295 34.2214 26.8451 33.6666 28.1626Z" fill="#F4F8F9"/>
<path d="M23.8359 17.9493C20.4999 17.9493 17.7853 20.664 17.7853 24C17.7853 27.336 20.4999 30.0507 23.8359 30.0507C27.1719 30.0507 29.8866 27.336 29.8866 24C29.8866 20.664 27.1719 17.9493 23.8359 17.9493ZM23.8359 27.384C21.9706 27.384 20.4519 25.8653 20.4519 24C20.4519 22.1347 21.9706 20.616 23.8359 20.616C25.7013 20.616 27.2199 22.1347 27.2199 24C27.2199 25.8653 25.7013 27.384 23.8359 27.384Z" fill="#F4F8F9"/>
</svg>
