<svg width="49" height="48" viewBox="0 0 49 48" fill="none" xmlns="http://www.w3.org/2000/svg">
<path d="M0.333252 8C0.333252 3.58172 3.91497 0 8.33325 0H40.3333C44.7515 0 48.3333 3.58172 48.3333 8V40C48.3333 44.4183 44.7515 48 40.3333 48H8.33325C3.91497 48 0.333252 44.4183 0.333252 40V8Z" fill="#1E1C69"/>
<path d="M23.8359 16C19.4239 16 15.8359 19.588 15.8359 24C15.8359 28.412 19.4239 32 23.8359 32C28.2479 32 31.8359 28.412 31.8359 24C31.8359 19.588 28.2479 16 23.8359 16ZM23.8359 29.3333C20.8946 29.3333 18.5026 26.9413 18.5026 24C18.5026 21.0587 20.8946 18.6667 23.8359 18.6667C26.7773 18.6667 29.1693 21.0587 29.1693 24C29.1693 26.9413 26.7773 29.3333 23.8359 29.3333Z" fill="#F4F8F9"/>
<path d="M23.836 10.6666C16.608 10.6666 10.5027 16.772 10.5027 24C10.5027 31.228 16.608 37.3333 23.836 37.3333C31.064 37.3333 37.1694 31.228 37.1694 24C37.1694 16.772 31.064 10.6666 23.836 10.6666ZM23.836 34.6666C18.0534 34.6666 13.1694 29.7826 13.1694 24C13.1694 18.2173 18.0534 13.3333 23.836 13.3333C29.6187 13.3333 34.5027 18.2173 34.5027 24C34.5027 29.7826 29.6187 34.6666 23.836 34.6666Z" fill="#F4F8F9"/>
<path d="M23.8359 21.3334C22.3945 21.3334 21.1692 22.5587 21.1692 24C21.1692 25.4414 22.3945 26.6667 23.8359 26.6667C25.2772 26.6667 26.5025 25.4414 26.5025 24C26.5025 22.5587 25.2772 21.3334 23.8359 21.3334Z" fill="#F4F8F9"/>
</svg>
