<svg width="49" height="48" viewBox="0 0 49 48" fill="none" xmlns="http://www.w3.org/2000/svg">
<rect x="0.164124" width="48" height="48" rx="8" fill="#1E1C69"/>
<path fill-rule="evenodd" clip-rule="evenodd" d="M12.1641 33.3333V14.6667C12.1641 13.196 13.3601 12 14.8308 12H33.4975C34.9681 12 36.1641 13.196 36.1641 14.6667V33.3333C36.1641 34.804 34.9681 36 33.4975 36H14.8308C13.3601 36 12.1641 34.804 12.1641 33.3333ZM14.8308 33.3333H33.4988L33.4975 14.6667H14.8308V33.3333ZM25.4975 17.3333H22.8308V30.6667H25.4975V17.3333ZM30.8308 21.3333H28.1641V30.6667H30.8308V21.3333ZM20.1641 24H17.4975V30.6667H20.1641V24Z" fill="#F4F8F9"/>
</svg>
