<svg width="49" height="48" viewBox="0 0 49 48" fill="none" xmlns="http://www.w3.org/2000/svg">
<path d="M0.164124 8C0.164124 3.58172 3.74585 0 8.16412 0H40.1641C44.5824 0 48.1641 3.58172 48.1641 8V40C48.1641 44.4183 44.5824 48 40.1641 48H8.16412C3.74585 48 0.164124 44.4183 0.164124 40V8Z" fill="#1E1C69"/>
<path d="M25.6641 15H28.6641V31.5H25.6641V15ZM31.6641 10.5H34.6641V31.5H31.6641V10.5ZM19.6641 19.5H22.6641V31.5H19.6641V19.5ZM12.1641 34.5H36.1641V37.5H12.1641V34.5ZM13.6641 24H16.6641V31.5H13.6641V24Z" fill="#F4F8F9"/>
</svg>
