<svg width="49" height="48" viewBox="0 0 49 48" fill="none" xmlns="http://www.w3.org/2000/svg">
<path d="M0.164124 8C0.164124 3.58172 3.74585 0 8.16412 0H40.1641C44.5824 0 48.1641 3.58172 48.1641 8V40C48.1641 44.4183 44.5824 48 40.1641 48H8.16412C3.74585 48 0.164124 44.4183 0.164124 40V8Z" fill="#1E1C69"/>
<path d="M21.4975 12H13.4975C13.1438 12 12.8047 12.1405 12.5546 12.3905C12.3046 12.6406 12.1641 12.9797 12.1641 13.3333V21.3333C12.1641 21.687 12.3046 22.0261 12.5546 22.2761C12.8047 22.5262 13.1438 22.6667 13.4975 22.6667H21.4975C21.8511 22.6667 22.1902 22.5262 22.4403 22.2761C22.6903 22.0261 22.8308 21.687 22.8308 21.3333V13.3333C22.8308 12.9797 22.6903 12.6406 22.4403 12.3905C22.1902 12.1405 21.8511 12 21.4975 12ZM20.1641 20H14.8308V14.6667H20.1641V20ZM34.8308 12H26.8308C26.4772 12 26.138 12.1405 25.888 12.3905C25.6379 12.6406 25.4975 12.9797 25.4975 13.3333V21.3333C25.4975 21.687 25.6379 22.0261 25.888 22.2761C26.138 22.5262 26.4772 22.6667 26.8308 22.6667H34.8308C35.1844 22.6667 35.5236 22.5262 35.7736 22.2761C36.0236 22.0261 36.1641 21.687 36.1641 21.3333V13.3333C36.1641 12.9797 36.0236 12.6406 35.7736 12.3905C35.5236 12.1405 35.1844 12 34.8308 12ZM33.4975 20H28.1641V14.6667H33.4975V20ZM21.4975 25.3333H13.4975C13.1438 25.3333 12.8047 25.4738 12.5546 25.7239C12.3046 25.9739 12.1641 26.313 12.1641 26.6667V34.6667C12.1641 35.0203 12.3046 35.3594 12.5546 35.6095C12.8047 35.8595 13.1438 36 13.4975 36H21.4975C21.8511 36 22.1902 35.8595 22.4403 35.6095C22.6903 35.3594 22.8308 35.0203 22.8308 34.6667V26.6667C22.8308 26.313 22.6903 25.9739 22.4403 25.7239C22.1902 25.4738 21.8511 25.3333 21.4975 25.3333ZM20.1641 33.3333H14.8308V28H20.1641V33.3333ZM30.8308 25.3333C27.8895 25.3333 25.4975 27.7253 25.4975 30.6667C25.4975 33.608 27.8895 36 30.8308 36C33.7721 36 36.1641 33.608 36.1641 30.6667C36.1641 27.7253 33.7721 25.3333 30.8308 25.3333ZM30.8308 33.3333C29.3601 33.3333 28.1641 32.1373 28.1641 30.6667C28.1641 29.196 29.3601 28 30.8308 28C32.3015 28 33.4975 29.196 33.4975 30.6667C33.4975 32.1373 32.3015 33.3333 30.8308 33.3333Z" fill="#F4F8F9"/>
</svg>
