<svg width="49" height="48" viewBox="0 0 49 48" fill="none" xmlns="http://www.w3.org/2000/svg">
<path d="M0.666504 8C0.666504 3.58172 4.24823 0 8.6665 0H40.6665C45.0848 0 48.6665 3.58172 48.6665 8V40C48.6665 44.4183 45.0848 48 40.6665 48H8.6665C4.24823 48 0.666504 44.4183 0.666504 40V8Z" fill="#1E1C69"/>
<path d="M22.1694 32C24.536 31.9997 26.8345 31.2074 28.6987 29.7493L34.56 35.6106L36.4454 33.7253L30.584 27.864C32.0429 25.9996 32.8357 23.7006 32.836 21.3333C32.836 15.452 28.0507 10.6666 22.1694 10.6666C16.288 10.6666 11.5027 15.452 11.5027 21.3333C11.5027 27.2146 16.288 32 22.1694 32ZM22.1694 13.3333C26.5814 13.3333 30.1694 16.9213 30.1694 21.3333C30.1694 25.7453 26.5814 29.3333 22.1694 29.3333C17.7574 29.3333 14.1694 25.7453 14.1694 21.3333C14.1694 16.9213 17.7574 13.3333 22.1694 13.3333Z" fill="#F4F8F9"/>
<path d="M24.052 19.448C24.5574 19.9547 24.836 20.624 24.836 21.3333H27.5027C27.5037 20.6326 27.3658 19.9386 27.0972 19.2914C26.8285 18.6443 26.4343 18.0567 25.9374 17.5627C23.9187 15.5467 20.4187 15.5467 18.4014 17.5627L20.284 19.4507C21.2974 18.44 23.044 18.4427 24.052 19.448Z" fill="#F4F8F9"/>
</svg>
